Coordinates
version=1
nRows=21
nColumns=38
inDegrees=no

Units are S.I. units (second, meters, Newtons, ...)
If the header above contains a line with 'inDegrees', this indicates whether rotational values are in degrees (yes) or radians (no).

endheader
time	pelvis_tilt	pelvis_list	pelvis_rotation	pelvis_tx	pelvis_ty	pelvis_tz	hip_flexion_r	hip_adduction_r	hip_rotation_r	knee_angle_r	ankle_angle_r	subtalar_angle_r	mtp_angle_r	hip_flexion_l	hip_adduction_l	hip_rotation_l	knee_angle_l	ankle_angle_l	subtalar_angle_l	mtp_angle_l	lumbar_extension	lumbar_bending	lumbar_rotation	arm_flex_r	arm_add_r	arm_rot_r	elbow_flex_r	pro_sup_r	wrist_flex_r	wrist_dev_r	arm_flex_l	arm_add_l	arm_rot_l	elbow_flex_l	pro_sup_l	wrist_flex_l	wrist_dev_l
0.97	0.150751	0.0923501	-0.0681692	0.781188	0.988506	-0.314784	-0.514251	-0.157474	-0.0972222	-1.02055	-0.496731	-0.0290223	-0.00231454	0.380718	0.119719	-0.105016	-0.312836	0.0889807	0.0040637	-0.0435967	-0.43415	-0.169621	0.117949	-0.383831	-0.475425	-0.375519	1.89574	1.38956	0.0144776	-0.0516297	-0.75875	-0.281494	-0.321684	1.70539	1.76109	0.0661847	-0.0523579
0.98	0.154544	0.0942009	-0.0611995	0.78063	0.984818	-0.317259	-0.464878	-0.169239	-0.102923	-1.15662	-0.479428	-0.0290223	-0.00231454	0.373674	0.130134	-0.100091	-0.356988	0.0853743	0.0040637	-0.0435967	-0.44373	-0.167321	0.105969	-0.394902	-0.466665	-0.380996	1.88033	1.38743	0.0144776	-0.0516297	-0.709835	-0.302795	-0.298317	1.68842	1.76334	0.0661847	-0.0523579
0.99	0.157949	0.100532	-0.0537155	0.77987	0.980404	-0.319899	-0.410454	-0.18598	-0.110666	-1.28762	-0.458459	-0.0290223	-0.00231454	0.368997	0.145066	-0.0988212	-0.424572	0.0888361	0.0040637	-0.0435967	-0.452531	-0.168759	0.0918828	-0.408921	-0.45658	-0.38786	1.86069	1.38492	0.0144776	-0.0516297	-0.653299	-0.327782	-0.269787	1.66822	1.765	0.0661847	-0.0523579
1	0.160668	0.110248	-0.0460129	0.778986	0.975522	-0.322498	-0.351075	-0.20521	-0.117934	-1.41017	-0.433881	-0.0290223	-0.00231454	0.364532	0.1635	-0.098826	-0.507708	0.103844	0.0040637	-0.0435967	-0.460249	-0.173455	0.0752813	-0.424381	-0.445488	-0.394394	1.83647	1.38239	0.0144776	-0.0516297	-0.591084	-0.354381	-0.238616	1.6457	1.76617	0.0661847	-0.0523579
1.01	0.162545	0.121795	-0.0385414	0.778053	0.970561	-0.324839	-0.286644	-0.224031	-0.122338	-1.52164	-0.405745	-0.0290223	-0.00231454	0.357692	0.183861	-0.0978128	-0.597654	0.133138	0.0040637	-0.0435967	-0.466707	-0.180475	0.0561756	-0.4399	-0.433672	-0.398967	1.80762	1.37981	0.0144776	-0.0516297	-0.525024	-0.380654	-0.207218	1.62186	1.76725	0.0661847	-0.0523579
1.02	0.163503	0.133368	-0.03188	0.777078	0.96587	-0.326717	-0.217116	-0.239636	-0.122191	-1.62002	-0.374331	-0.0290223	-0.00231454	0.345663	0.204175	-0.0941271	-0.685569	0.176805	0.0040637	-0.0435967	-0.471859	-0.188569	0.0351057	-0.454536	-0.421339	-0.400369	1.77456	1.37685	0.0144776	-0.0516297	-0.456748	-0.405036	-0.177606	1.59783	1.76879	0.0661847	-0.0523579
1.03	0.163598	0.143171	-0.0266384	0.776026	0.961654	-0.328021	-0.142751	-0.249692	-0.116862	-1.70375	-0.340172	-0.0290223	-0.00231454	0.325717	0.222305	-0.0869742	-0.76334	0.232123	0.0040637	-0.0435967	-0.47573	-0.196323	0.0130199	-0.467945	-0.408633	-0.397978	1.73829	1.37293	0.0144776	-0.0516297	-0.387757	-0.426407	-0.151336	1.57502	1.77132	0.0661847	-0.0523579
1.04	0.162975	0.149642	-0.0233286	0.774891	0.958072	-0.328767	-0.064296	-0.252576	-0.106868	-1.77156	-0.303995	-0.0290223	-0.00231454	0.295584	0.236225	-0.0763735	-0.824335	0.294081	0.0040637	-0.0435967	-0.47836	-0.202289	-0.00895733	-0.480398	-0.39568	-0.391821	1.70033	1.36747	0.0144776	-0.0516297	-0.319551	-0.444045	-0.129538	1.55506	1.77523	0.0661847	-0.0523579
1.05	0.161785	0.151555	-0.022215	0.773755	0.95531	-0.329017	0.0169978	-0.247483	-0.0937515	-1.8224	-0.266638	-0.0290223	-0.00231454	0.253822	0.244269	-0.0629878	-0.863928	0.356264	0.0040637	-0.0435967	-0.479681	-0.205105	-0.0297816	-0.492715	-0.382613	-0.382566	1.66266	1.3601	0.0144776	-0.0516297	-0.253696	-0.457533	-0.112954	1.53979	1.7807	0.0661847	-0.0523579
1.06	0.160085	0.148105	-0.0232104	0.772776	0.95353	-0.328834	0.0995024	-0.234408	-0.0797665	-1.85548	-0.228956	-0.0290223	-0.00231454	0.200054	0.245299	-0.0479291	-0.87968	0.411755	0.0040637	-0.0435967	-0.479442	-0.203592	-0.0486978	-0.50609	-0.369592	-0.371409	1.62746	1.3509	0.0144776	-0.0516297	-0.191792	-0.466679	-0.101925	1.53099	1.78759	0.0661847	-0.0523579
1.07	0.157757	0.138963	-0.0258709	0.772148	0.952804	-0.328346	0.181398	-0.214029	-0.0674493	-1.87019	-0.191741	-0.0290223	-0.00231454	0.135005	0.238774	-0.0325824	-0.871212	0.453897	0.0040637	-0.0435967	-0.477221	-0.19684	-0.0653677	-0.521838	-0.356794	-0.359877	1.59693	1.3404	0.0144776	-0.0516297	-0.135347	-0.471481	-0.0963493	1.53016	1.79537	0.0661847	-0.0523579
1.08	0.154516	0.124279	-0.0294788	0.772076	0.953098	-0.327732	0.260873	-0.187524	-0.0591479	-1.86613	-0.155651	-0.0290223	-0.00231454	0.0603956	0.224733	-0.018452	-0.839931	0.476921	0.0040637	-0.0435967	-0.472489	-0.184307	-0.0798911	-0.541111	-0.344375	-0.349551	1.57288	1.32953	0.0144776	-0.0516297	-0.0856253	-0.472136	-0.0956421	1.53827	1.80317	0.0661847	-0.0523579
1.09	0.149966	0.104614	-0.0331899	0.772735	0.954287	-0.327129	0.336267	-0.156365	-0.0565972	-1.84307	-0.121196	-0.0290223	-0.00231454	-0.0212552	0.203754	-0.00702169	-0.788719	0.47648	0.0040637	-0.0435967	-0.464729	-0.165923	-0.0927331	-0.564639	-0.332437	-0.3418	1.55654	1.31943	0.0144776	-0.0516297	-0.0434994	-0.469077	-0.0987624	1.55564	1.80986	0.0661847	-0.0523579
1.1	0.143694	0.0808566	-0.0362176	0.77424	0.956197	-0.326588	0.406152	-0.12211	-0.0605973	-1.80091	-0.0887231	-0.0290223	-0.00231454	-0.10686	0.176866	0.00037894	-0.721685	0.450104	0.0040637	-0.0435967	-0.453555	-0.142153	-0.104583	-0.592553	-0.320996	-0.337542	1.54835	1.31107	0.0144776	-0.0516297	-0.00937256	-0.462977	-0.104321	1.5819	1.81434	0.0661847	-0.0523579
1.11	0.135392	0.0542054	-0.0379858	0.776606	0.958623	-0.326109	0.469325	-0.0862707	-0.0708636	-1.73961	-0.0584482	-0.0290223	-0.00231454	-0.193008	0.145489	0.00274686	-0.64397	0.397499	0.0040637	-0.0435967	-0.438826	-0.114006	-0.116188	-0.624319	-0.30997	-0.337142	1.54792	1.30511	0.0144776	-0.0516297	0.0168522	-0.454736	-0.110735	1.61604	1.8158	0.0661847	-0.0523579
1.12	0.124944	0.0260978	-0.0382132	0.779749	0.961344	-0.325671	0.524767	-0.0502462	-0.0860526	-1.65925	-0.0304767	-0.0290223	-0.00231454	-0.276215	0.111388	-0.000388506	-0.561543	0.320667	0.0040637	-0.0435967	-0.420742	-0.083007	-0.128209	-0.658794	-0.299171	-0.340422	1.55412	1.3018	0.0144776	-0.0516297	0.0357489	-0.445417	-0.116385	1.65655	1.81386	0.0661847	-0.0523579
1.13	0.112522	-0.00184706	-0.0369201	0.783484	0.964159	-0.32524	0.571545	-0.0153192	-0.103957	-1.5602	-0.00481372	-0.0290223	-0.00231454	-0.353214	0.0766199	-0.00876251	-0.480931	0.223814	0.0040637	-0.0435967	-0.399912	-0.0510935	-0.141116	-0.694391	-0.288335	-0.346772	1.56531	1.30097	0.0144776	-0.0516297	0.0483018	-0.436136	-0.119779	1.7015	1.80878	0.0661847	-0.0523579
1.14	0.0986321	-0.0279168	-0.0343643	0.787557	0.966899	-0.324793	0.608779	0.0173236	-0.121851	-1.44331	0.0186259	-0.0290223	-0.00231454	-0.421224	0.0434175	-0.0212529	-0.408847	0.113049	0.0040637	-0.0435967	-0.377361	-0.0204338	-0.155122	-0.729294	-0.277157	-0.355317	1.57963	1.30213	0.0144776	-0.0516297	0.0557967	-0.427925	-0.119674	1.7487	1.8014	0.0661847	-0.0523579
1.15	0.0841129	-0.0504445	-0.0309368	0.791703	0.96943	-0.324345	0.635659	0.0465724	-0.136939	-1.31034	0.0399942	-0.0290223	-0.00231454	-0.478205	0.0140028	-0.035921	-0.351691	-0.00415539	0.0040637	-0.0435967	-0.354488	0.00681913	-0.170157	-0.761704	-0.265347	-0.365083	1.59526	1.30457	0.0144776	-0.0516297	0.0596797	-0.421597	-0.115173	1.79585	1.79291	0.0661847	-0.0523579
1.16	0.0700674	-0.0679925	-0.0270545	0.795696	0.971644	-0.323956	0.6516	0.0714182	-0.146858	-1.16432	0.0594605	-0.0290223	-0.00231454	-0.523003	-0.00967537	-0.0502784	-0.315032	-0.119753	0.0040637	-0.0435967	-0.332944	0.0288117	-0.185867	-0.79004	-0.252697	-0.375137	1.61068	1.30759	0.0144776	-0.0516297	0.0613901	-0.417635	-0.105784	1.84069	1.78454	0.0661847	-0.0523579
1.17	0.0577198	-0.0795675	-0.0230774	0.799364	0.973467	-0.323699	0.656474	0.0910366	-0.150119	-1.00995	0.0771497	-0.0290223	-0.00231454	-0.555346	-0.0262425	-0.0617751	-0.303154	-0.226077	0.0040637	-0.0435967	-0.314462	0.044259	-0.201649	-0.813093	-0.239143	-0.384669	1.62484	1.31058	0.0144776	-0.0516297	0.0621869	-0.416134	-0.0914624	1.88114	1.77724	0.0661847	-0.0523579
